<svg width="125" height="45" viewBox="0 0 125 45" fill="none" xmlns="http://www.w3.org/2000/svg">
    <g clip-path="url(#clip0_3695_96)">
        <path d="M37.3124 0H0V35.7338H37.3124V0Z" fill="white"/>
        <path fill-rule="evenodd" clip-rule="evenodd"
              d="M41.1087 15.3865C41.0822 15.5137 41.0382 15.6366 40.9779 15.7518C40.924 15.8579 40.8524 15.954 40.766 16.0359C40.6968 16.106 40.603 16.1465 40.5045 16.1486H40.4053V16.3515H43.2189V16.1486H43.1197C43.0685 16.1492 43.0177 16.1387 42.971 16.1176C42.9243 16.0966 42.8827 16.0656 42.8492 16.0268C42.7732 15.9414 42.7094 15.8458 42.6598 15.7427C42.604 15.6297 42.5631 15.51 42.5381 15.3865C42.5123 15.2694 42.4987 15.1501 42.4975 15.0302V9.50148H48.9229V15.0302C48.9215 15.15 48.9079 15.2694 48.8823 15.3865C48.8559 15.5137 48.8119 15.6367 48.7515 15.7518C48.6976 15.8579 48.626 15.954 48.5396 16.0359C48.4704 16.106 48.3766 16.1465 48.2781 16.1486H48.1789V16.3515H50.9925V16.1486H50.8933C50.8449 16.1478 50.7973 16.1365 50.7537 16.1155C50.7101 16.0945 50.6716 16.0642 50.6408 16.0268C50.5647 15.9415 50.501 15.8458 50.4514 15.7427C50.3957 15.6288 50.3519 15.5094 50.3207 15.3865C50.2891 15.2703 50.2725 15.1506 50.2711 15.0302V4.19372C50.273 4.08435 50.2866 3.97549 50.3117 3.86903C50.3379 3.74991 50.3757 3.63363 50.4244 3.52179C50.4677 3.4179 50.5322 3.3242 50.6138 3.24671C50.6888 3.17422 50.789 3.13379 50.8933 3.13397H50.9925V2.93555H48.1789V3.15652H48.2781C48.3824 3.15634 48.4826 3.19677 48.5576 3.26926C48.6416 3.34775 48.7103 3.44099 48.7605 3.54434C48.862 3.75416 48.9173 3.98327 48.9229 4.21627V8.78897H42.4975V4.19372C42.4993 4.08435 42.513 3.97549 42.5381 3.86903C42.5628 3.75006 42.5991 3.63377 42.6463 3.52179C42.6901 3.41951 42.7546 3.32739 42.8357 3.25122C42.9146 3.18418 43.0164 3.15025 43.1197 3.15652H43.2189V2.93555H40.4053V3.15652H40.5045C40.6088 3.15634 40.709 3.19677 40.784 3.26926C40.8679 3.34775 40.9367 3.44099 40.9869 3.54434C41.0884 3.75416 41.1437 3.98327 41.1493 4.21627V15.0392C41.1472 15.156 41.1337 15.2724 41.1087 15.3865Z"
              fill="white"/>
        <path fill-rule="evenodd" clip-rule="evenodd"
              d="M60.8722 13.9795H60.6693C60.6633 14.1483 60.6329 14.3154 60.5791 14.4755C60.5188 14.6738 60.4241 14.86 60.2996 15.0257C60.1767 15.2012 60.0241 15.3538 59.8487 15.4767C59.6508 15.6022 59.4202 15.6665 59.1858 15.6616H54.785V9.46992H58.1172C58.4028 9.45759 58.6826 9.55249 58.9018 9.73598C58.996 9.81201 59.0721 9.90817 59.1244 10.0174C59.1766 10.1267 59.2038 10.2462 59.2039 10.3673H59.4068V7.83294H59.2039C59.2025 7.96058 59.1741 8.08648 59.1204 8.20231C59.0668 8.31814 58.9892 8.42127 58.8928 8.50487C58.6821 8.69561 58.4058 8.79742 58.1217 8.78897H54.785V3.64806H58.8432C59.0265 3.63226 59.211 3.65588 59.3845 3.71733C59.5579 3.77878 59.7162 3.87663 59.8487 4.00432C60.0581 4.23111 60.1852 4.52179 60.2094 4.82957H60.4123V2.93555H52.6567V3.15652H52.7559C52.8602 3.15634 52.9605 3.19677 53.0355 3.26926C53.1203 3.34915 53.1918 3.442 53.2474 3.54434C53.3077 3.65407 53.3547 3.77065 53.3872 3.89158C53.4179 3.99717 53.4345 4.10633 53.4368 4.21627V15.0708C53.4358 15.1882 53.4191 15.305 53.3872 15.418C53.3548 15.539 53.3078 15.6556 53.2474 15.7653C53.1919 15.8677 53.1204 15.9606 53.0355 16.0404C52.9605 16.1128 52.8602 16.1533 52.7559 16.1531H52.6567V16.356H60.8722V13.9795Z"
              fill="white"/>
        <path fill-rule="evenodd" clip-rule="evenodd"
              d="M64.0286 9.36169C64.3782 9.73428 64.8022 10.0293 65.2731 10.2275C65.7914 10.4436 66.3485 10.5511 66.9099 10.5432C67.4065 10.5461 67.8986 10.4495 68.3573 10.2591C68.7414 10.1065 69.105 9.90657 69.4395 9.66383V15.0753C69.4386 15.1922 69.425 15.3086 69.3989 15.4226C69.3725 15.5441 69.3284 15.661 69.2681 15.7698C69.2125 15.8721 69.141 15.965 69.0562 16.0449C68.987 16.115 68.8932 16.1555 68.7947 16.1576H68.6955V16.3605H71.5677V16.1576H71.4054C71.3044 16.1406 71.2121 16.0897 71.1439 16.0133C71.063 15.9322 70.9946 15.8395 70.941 15.7382C70.8855 15.633 70.8446 15.5207 70.8192 15.4045C70.7941 15.2981 70.7805 15.1892 70.7787 15.0798V4.19372C70.7801 4.08729 70.7937 3.98138 70.8192 3.87805C70.8457 3.76504 70.8867 3.65592 70.941 3.55336C70.9945 3.45207 71.0629 3.35935 71.1439 3.27827C71.2121 3.20185 71.3044 3.15096 71.4054 3.13397H71.5677V2.93555H68.718V3.15652H68.8804C68.9756 3.17199 69.0613 3.22369 69.1193 3.30082C69.188 3.38477 69.2456 3.47723 69.2907 3.57591C69.3376 3.6802 69.3739 3.78898 69.3989 3.90059C69.4243 4.00394 69.4379 4.10985 69.4395 4.21627V8.78897C69.1102 9.02351 68.76 9.2273 68.3934 9.39776C68.0494 9.56734 67.6721 9.65823 67.2887 9.66383C66.9206 9.66281 66.5563 9.59085 66.2155 9.45188C65.8614 9.31097 65.537 9.10442 65.2596 8.84309C64.9751 8.57302 64.7441 8.25174 64.5787 7.89608C64.4013 7.51499 64.3119 7.09884 64.3172 6.67849V4.19372C64.3194 4.08378 64.336 3.9746 64.3668 3.86903C64.3993 3.74809 64.4462 3.63151 64.5066 3.52179C64.5621 3.41941 64.6337 3.32655 64.7185 3.24671C64.7935 3.17422 64.8938 3.13379 64.9981 3.13397H65.0973V2.93555H62.3062V3.15652H62.4054C62.4493 3.15873 62.4924 3.16987 62.5319 3.18925C62.5715 3.20863 62.6066 3.23585 62.6353 3.26926C62.7118 3.34912 62.7729 3.44236 62.8157 3.54434C62.8626 3.65641 62.8989 3.77267 62.9239 3.89158C62.9488 3.99807 62.9624 4.10691 62.9645 4.21627V6.57477C62.9612 7.09802 63.0528 7.61752 63.235 8.10803C63.4147 8.57399 63.6843 8.99999 64.0286 9.36169Z"
              fill="white"/>
        <path fill-rule="evenodd" clip-rule="evenodd"
              d="M81.6366 15.3554C81.6745 15.4673 81.6943 15.5845 81.6953 15.7026C81.6953 16.0033 81.5344 16.1536 81.2128 16.1536H81.1136V16.3565H84.0851V16.1536H83.9859C83.8523 16.1528 83.7213 16.1164 83.6064 16.0483C83.4915 15.9801 83.3968 15.8826 83.332 15.7658C83.1692 15.5183 83.0374 15.2518 82.9398 14.9721L78.4578 2.70605L73.8585 15.1074C73.7618 15.3755 73.6233 15.6266 73.4482 15.8515C73.3923 15.9398 73.3169 16.0142 73.2278 16.0689C73.1387 16.1236 73.0382 16.1572 72.9342 16.1671H72.835V16.3701H75.0624V16.1671H74.9632C74.9049 16.1646 74.8477 16.1495 74.7956 16.1231C74.7435 16.0967 74.6977 16.0594 74.6611 16.0138C74.5631 15.8985 74.5131 15.75 74.5214 15.5989C74.5229 15.4941 74.5427 15.3903 74.58 15.2923L76.3295 10.431H79.8105L81.6141 15.3915L81.6366 15.3554ZM76.5144 9.72746L78.061 5.47944L79.6076 9.72746H76.5144Z"
              fill="white"/>
        <path fill-rule="evenodd" clip-rule="evenodd"
              d="M93.5265 13.9795H93.3371C93.3311 14.1483 93.3007 14.3154 93.2469 14.4755C93.1865 14.6738 93.0919 14.86 92.9674 15.0257C92.8445 15.2012 92.6919 15.3538 92.5165 15.4767C92.3186 15.6025 92.088 15.6668 91.8536 15.6616H87.4573V9.46992H90.7895C91.0751 9.45759 91.3549 9.55249 91.5741 9.73598C91.6683 9.81201 91.7444 9.90817 91.7967 10.0174C91.8489 10.1267 91.8761 10.2462 91.8762 10.3673H92.0791V7.83294H91.8762C91.8748 7.96058 91.8464 8.08648 91.7927 8.20231C91.7391 8.31814 91.6615 8.42127 91.5651 8.50487C91.3544 8.69561 91.0781 8.79742 90.794 8.78897H87.4618V3.64806H91.52C91.7033 3.63226 91.8879 3.65588 92.0613 3.71733C92.2347 3.77878 92.393 3.87663 92.5255 4.00432C92.7346 4.23131 92.8616 4.52188 92.8862 4.82957H93.0846V2.93555H85.293V3.15652H85.3922C85.4965 3.15634 85.5967 3.19677 85.6717 3.26926C85.7564 3.34925 85.8279 3.44209 85.8837 3.54434C85.9439 3.65413 85.9908 3.77069 86.0234 3.89158C86.054 3.99718 86.0707 4.10634 86.073 4.21627V15.0708C86.072 15.1882 86.0553 15.305 86.0234 15.418C85.9909 15.5389 85.9439 15.6555 85.8837 15.7653C85.828 15.8676 85.7565 15.9605 85.6717 16.0404C85.5967 16.1128 85.4965 16.1533 85.3922 16.1531H85.293V16.356H93.5265V13.9795Z"
              fill="white"/>
        <path fill-rule="evenodd" clip-rule="evenodd"
              d="M102.987 11.4137C102.894 11.0304 102.731 10.6679 102.504 10.3449C102.262 9.99151 101.956 9.68578 101.603 9.44301C101.176 9.1651 100.697 8.97783 100.196 8.89284C100.432 8.77108 100.66 8.63243 100.877 8.47796C101.126 8.3013 101.352 8.09371 101.548 7.86015C101.761 7.60939 101.934 7.32816 102.063 7.02588C102.201 6.6916 102.27 6.33253 102.265 5.97064C102.276 5.54454 102.187 5.12188 102.003 4.7371C101.82 4.35232 101.548 4.01631 101.21 3.75644C100.36 3.16207 99.3332 2.87283 98.2975 2.9357H95.0059V3.15667H95.1051C95.2131 3.15791 95.3171 3.19792 95.3982 3.26941C95.4892 3.34919 95.5642 3.44561 95.6191 3.55351C95.678 3.66605 95.722 3.78582 95.7499 3.90977C95.7748 4.01626 95.7884 4.1251 95.7904 4.23446V15.0574C95.789 15.1772 95.7754 15.2966 95.7499 15.4137C95.7243 15.5383 95.6802 15.6584 95.6191 15.7699C95.5617 15.8738 95.4904 15.9694 95.4072 16.054C95.3741 16.091 95.3339 16.1209 95.2889 16.1418C95.244 16.1628 95.1952 16.1743 95.1456 16.1758H95.0464V16.3787H98.6537C99.2175 16.3803 99.7794 16.3121 100.327 16.1758C100.845 16.0514 101.335 15.8278 101.769 15.5174C102.193 15.2075 102.539 14.8029 102.779 14.3359C103.048 13.7832 103.178 13.1734 103.158 12.5591C103.156 12.1821 103.109 11.8067 103.018 11.4408L102.987 11.4137ZM97.1206 3.60763H98.1261C98.8638 3.56985 99.5876 3.81867 100.146 4.3021C100.4 4.54445 100.603 4.8354 100.742 5.15767C100.882 5.47994 100.955 5.82695 100.958 6.17808V6.31337C100.956 6.59723 100.915 6.87948 100.836 7.15215C100.749 7.44528 100.595 7.71398 100.385 7.93681C100.148 8.19126 99.8565 8.38993 99.533 8.51855C99.0938 8.6833 98.6265 8.75992 98.1577 8.74403H97.1116V3.60763H97.1206ZM101.778 12.9109C101.797 13.3051 101.723 13.6982 101.56 14.058C101.398 14.4178 101.153 14.734 100.845 14.9808C100.102 15.5033 99.2039 15.7577 98.2975 15.7023H97.1341V9.3889H98.2569C98.7077 9.36084 99.1597 9.42208 99.5868 9.56911C100.014 9.71615 100.408 9.94608 100.746 10.2457C101.374 10.9029 101.745 11.7639 101.792 12.6719L101.778 12.9109Z"
              fill="white"/>
        <path fill-rule="evenodd" clip-rule="evenodd"
              d="M41.0327 32.681C41.0075 32.8053 40.9682 32.9264 40.9154 33.0418C40.8678 33.1468 40.8004 33.2417 40.717 33.3213C40.643 33.3919 40.5443 33.4307 40.442 33.4296H40.3428V33.628H43.1068V33.4296H43.0076C42.9559 33.4291 42.9048 33.4181 42.8575 33.3972C42.8102 33.3762 42.7677 33.3458 42.7326 33.3078C42.6524 33.2274 42.5882 33.1325 42.5432 33.0282C42.4955 32.9164 42.4593 32.8001 42.435 32.681C42.4093 32.5655 42.3957 32.4476 42.3944 32.3292V21.15H48.4095V32.3337C48.4082 32.4516 48.3976 32.5693 48.3779 32.6855C48.3596 32.805 48.3263 32.9216 48.2787 33.0327C48.2357 33.1349 48.1763 33.2293 48.1029 33.3123C48.0728 33.3494 48.0351 33.3795 47.9922 33.4005C47.9494 33.4215 47.9025 33.433 47.8549 33.4341H47.679V33.6325H50.4385V33.4341H50.2807C50.233 33.4333 50.186 33.422 50.1431 33.4009C50.1003 33.3799 50.0626 33.3496 50.0327 33.3123C49.9577 33.2272 49.8981 33.1295 49.8569 33.0237C49.811 32.912 49.7777 32.7956 49.7577 32.6765C49.738 32.5648 49.7275 32.4517 49.7261 32.3383V21.6867C49.7291 21.5863 49.7427 21.4865 49.7667 21.389C49.7927 21.2704 49.8289 21.1542 49.8749 21.0418C49.9149 20.9327 49.9745 20.8318 50.0508 20.7442C50.0801 20.7096 50.1168 20.6819 50.1581 20.6632C50.1994 20.6445 50.2444 20.6352 50.2897 20.6359H50.4476V20.4375H40.3428V20.6359H40.442C40.5384 20.6375 40.6305 20.6763 40.699 20.7442C40.781 20.8216 40.8482 20.9132 40.8974 21.0147C40.95 21.1233 40.9922 21.2365 41.0236 21.3529C41.0542 21.457 41.0708 21.5647 41.0732 21.6731V32.3157C41.0728 32.4386 41.0592 32.561 41.0327 32.681Z"
              fill="white"/>
        <path fill-rule="evenodd" clip-rule="evenodd"
              d="M59.9704 33.4295H59.8712V33.6279H62.7886V33.4295H62.6759C62.5452 33.4285 62.4171 33.393 62.3046 33.3265C62.1922 33.2599 62.0993 33.1648 62.0356 33.0507C61.8762 32.8074 61.7474 32.5454 61.6523 32.2705L57.2334 20.2119L52.7244 32.3878C52.6282 32.651 52.4912 32.8975 52.3186 33.1183C52.2638 33.2054 52.1898 33.2787 52.1023 33.3326C52.0147 33.3866 51.9159 33.4197 51.8136 33.4295H51.7144V33.6279H53.9058V33.4295H53.8066C53.7492 33.4274 53.6929 33.413 53.6416 33.3874C53.5903 33.3617 53.545 33.3253 53.509 33.2807C53.4108 33.1672 53.3607 33.02 53.3692 32.8703C53.3711 32.7684 53.3909 32.6676 53.4278 32.5727L55.1457 27.8015H58.5997L60.3762 32.6538C60.4135 32.7628 60.4333 32.8769 60.4349 32.992C60.4349 33.2927 60.2846 33.443 59.984 33.443L59.9704 33.4295ZM55.3532 27.1161L56.8727 22.9447L58.3923 27.1161H55.3532Z"
              fill="white"/>
        <path fill-rule="evenodd" clip-rule="evenodd"
              d="M66.7339 27.2381C67.2748 27.2366 67.8125 27.156 68.3301 26.9991C68.8449 26.8477 69.3321 26.6148 69.773 26.3091C70.1865 26.0165 70.5337 25.64 70.7921 25.2043C71.1481 24.5704 71.269 23.8312 71.1338 23.1169C70.9985 22.4025 70.6157 21.7588 70.0526 21.299C69.2951 20.7338 68.1874 20.4512 66.7294 20.4512H63.9293V20.6496H64.0285C64.1328 20.6698 64.2297 20.7177 64.3091 20.7883C64.3884 20.8589 64.4473 20.9497 64.4794 21.0509C64.5753 21.2514 64.629 21.4693 64.6372 21.6913V32.3339C64.6357 32.4522 64.6221 32.5701 64.5966 32.6856C64.5722 32.8058 64.5328 32.9225 64.4794 33.0329C64.4287 33.1361 64.3617 33.2305 64.281 33.3125C64.2488 33.3493 64.2094 33.3792 64.1652 33.4001C64.121 33.4211 64.0729 33.4327 64.024 33.4342H63.9248V33.6327H66.6843V33.4342H66.5851C66.5346 33.4345 66.4846 33.4238 66.4387 33.4027C66.3927 33.3817 66.3519 33.3509 66.3191 33.3125C66.2424 33.2272 66.1759 33.1334 66.1207 33.0329C66.0613 32.9242 66.0187 32.8071 65.9945 32.6856C65.9688 32.5701 65.9552 32.4522 65.9539 32.3339V27.2381H66.7339ZM65.9674 21.1502H66.247C66.8237 21.1368 67.3988 21.2144 67.9514 21.3801C68.3633 21.5054 68.7443 21.7159 69.0696 21.998C69.3441 22.2445 69.5545 22.554 69.6829 22.8999C69.8102 23.248 69.8743 23.616 69.8722 23.9867C69.8714 24.3116 69.7974 24.6322 69.6558 24.9247C69.5038 25.2398 69.2872 25.5195 69.02 25.7454C68.712 26.0013 68.3587 26.1971 67.9784 26.3226C67.5224 26.476 67.0437 26.5507 66.5626 26.5436H65.9674V21.1502Z"
              fill="white"/>
        <path fill-rule="evenodd" clip-rule="evenodd"
              d="M79.5579 21.1953C79.7505 21.1914 79.9406 21.2397 80.108 21.335C80.2618 21.4236 80.3966 21.5416 80.5048 21.6823C80.6092 21.8182 80.69 21.9706 80.7438 22.1332C80.7943 22.2922 80.8201 22.458 80.8204 22.6248H81.0188V20.4512H72.145V22.6293H72.3434C72.3449 22.4622 72.3723 22.2964 72.4246 22.1378C72.4767 21.9753 72.556 21.8228 72.6591 21.6868C72.7673 21.5461 72.9021 21.4282 73.0558 21.3396C73.2246 21.2434 73.4163 21.1951 73.6105 21.1998H75.8966V32.3294C75.895 32.4477 75.8814 32.5656 75.856 32.6811C75.8315 32.8025 75.789 32.9196 75.7297 33.0284C75.6737 33.1306 75.6039 33.2247 75.5223 33.308C75.4872 33.346 75.4447 33.3764 75.3974 33.3973C75.3501 33.4183 75.299 33.4293 75.2472 33.4297H75.148V33.6281H77.9482V33.4297H77.849C77.7984 33.43 77.7484 33.4193 77.7025 33.3982C77.6566 33.3772 77.6157 33.3464 77.5829 33.308C77.5063 33.2227 77.4397 33.1289 77.3845 33.0284C77.3251 32.9197 77.2825 32.8026 77.2583 32.6811C77.2326 32.5656 77.219 32.4477 77.2177 32.3294V21.1953H79.5579Z"
              fill="white"/>
        <path fill-rule="evenodd" clip-rule="evenodd"
              d="M92.0615 21.371C92.0867 21.2551 92.1229 21.1418 92.1697 21.0328C92.2134 20.9304 92.2779 20.8383 92.3591 20.7622C92.4334 20.6921 92.5319 20.6533 92.6341 20.654H92.7333V20.4556H89.9738V20.654H90.073C90.1752 20.6533 90.2737 20.6921 90.348 20.7622C90.43 20.8396 90.4973 20.9313 90.5464 21.0328C90.5986 21.1405 90.638 21.2541 90.6637 21.371C90.6888 21.4759 90.7024 21.5833 90.7043 21.6912V26.2008H84.3916V21.6912C84.3934 21.5833 84.407 21.4759 84.4322 21.371C84.4574 21.2551 84.4937 21.1418 84.5404 21.0328C84.5836 20.9302 84.6482 20.8379 84.7298 20.7622C84.8038 20.6917 84.9025 20.6528 85.0048 20.654H85.104V20.4556H82.3354V20.654H82.4346C82.5368 20.6533 82.6354 20.6921 82.7097 20.7622C82.7917 20.8396 82.8589 20.9313 82.9081 21.0328C82.9605 21.1405 82.9999 21.254 83.0253 21.371C83.0502 21.476 83.0638 21.5833 83.0659 21.6912V32.3338C83.0644 32.4521 83.0508 32.57 83.0253 32.6855C83.0005 32.8112 82.958 32.9326 82.8991 33.0463C82.8465 33.1507 82.7763 33.2453 82.6917 33.3259C82.6234 33.3941 82.5312 33.433 82.4346 33.4341H82.3354V33.6325H85.095V33.4341H84.9958C84.9452 33.4347 84.8951 33.4241 84.8491 33.4031C84.8031 33.382 84.7624 33.351 84.7298 33.3124C84.6538 33.2286 84.59 33.1344 84.5404 33.0328C84.4869 32.9224 84.4475 32.8057 84.4231 32.6855C84.3974 32.57 84.3838 32.4521 84.3826 32.3338V26.9223H90.6952V32.3338C90.694 32.4521 90.6804 32.57 90.6547 32.6855C90.6293 32.811 90.5868 32.9324 90.5284 33.0463C90.4755 33.1505 90.4054 33.245 90.321 33.3259C90.2525 33.3937 90.1604 33.4325 90.064 33.4341H89.9648V33.6325H92.7243V33.4341H92.6251C92.5774 33.4333 92.5304 33.422 92.4875 33.4009C92.4447 33.3799 92.4069 33.3496 92.3771 33.3124C92.3009 33.2287 92.2371 33.1346 92.1877 33.0328C92.1339 32.9216 92.0916 32.8053 92.0615 32.6855C92.03 32.5709 92.0133 32.4527 92.0119 32.3338V21.6867C92.017 21.58 92.0336 21.4741 92.0615 21.371Z"
              fill="white"/>
        <path fill-rule="evenodd" clip-rule="evenodd"
              d="M102.455 31.2922H102.256C102.239 31.6635 102.112 32.0213 101.891 32.3204C101.769 32.4963 101.616 32.649 101.44 32.7713C101.246 32.8942 101.021 32.957 100.791 32.9517H96.4713V26.8818H99.7449C100.026 26.8699 100.301 26.9632 100.516 27.1434C100.608 27.2178 100.683 27.3118 100.734 27.4187C100.786 27.5256 100.813 27.6426 100.814 27.7612H101.003V25.2539H100.805C100.804 25.3793 100.777 25.5031 100.724 25.6168C100.671 25.7305 100.594 25.8313 100.498 25.9123C100.291 26.0997 100.02 26.1999 99.7404 26.1919H96.4668V21.1502H100.43C100.61 21.1343 100.791 21.1571 100.962 21.217C101.132 21.2769 101.287 21.3725 101.418 21.4974C101.623 21.7191 101.749 22.0033 101.774 22.3046H101.972V20.4512H94.3701V20.6496H94.4693C94.5715 20.6489 94.67 20.6877 94.7444 20.7578C94.8274 20.8365 94.8974 20.9278 94.9518 21.0284C95.0119 21.1351 95.0589 21.2486 95.0916 21.3666C95.1222 21.4707 95.1389 21.5783 95.1412 21.6868V32.37C95.1398 32.4844 95.1231 32.5982 95.0916 32.7082C95.0589 32.8262 95.012 32.9398 94.9518 33.0464C94.8976 33.1472 94.8276 33.2385 94.7444 33.317C94.6703 33.3875 94.5716 33.4264 94.4693 33.4252H94.3701V33.6236H102.455V31.2922Z"
              fill="white"/>
        <path fill-rule="evenodd" clip-rule="evenodd"
              d="M106.698 27.2381C107.237 27.2362 107.773 27.1557 108.289 26.9991C108.806 26.8481 109.294 26.6151 109.737 26.3091C110.159 26.0176 110.514 25.6394 110.778 25.1998C111.131 24.5643 111.249 23.8248 111.11 23.1114C110.971 22.3979 110.586 21.7562 110.021 21.299C109.263 20.7338 108.156 20.4512 106.698 20.4512H103.898V20.6496H103.997C104.101 20.6698 104.198 20.7177 104.277 20.7883C104.357 20.8589 104.416 20.9497 104.448 21.0509C104.544 21.2514 104.597 21.4693 104.605 21.6913V32.3339C104.604 32.4522 104.59 32.5701 104.565 32.6856C104.54 32.8058 104.501 32.9225 104.448 33.0329C104.397 33.1361 104.33 33.2306 104.249 33.3125C104.217 33.3493 104.178 33.3792 104.133 33.4001C104.089 33.4211 104.041 33.4327 103.992 33.4342H103.893V33.6327H106.653V33.4342H106.553C106.503 33.4345 106.453 33.4238 106.407 33.4027C106.361 33.3817 106.32 33.3509 106.287 33.3125C106.211 33.2272 106.144 33.1334 106.089 33.0329C106.03 32.9242 105.987 32.8071 105.963 32.6856C105.937 32.5701 105.924 32.4522 105.922 32.3339V27.2381H106.698ZM105.963 21.1502H106.242C106.819 21.1367 107.394 21.2144 107.947 21.3801C108.359 21.5053 108.74 21.7158 109.065 21.998C109.34 22.2439 109.551 22.5536 109.678 22.8999C109.805 23.248 109.87 23.616 109.868 23.9867C109.867 24.3116 109.793 24.6322 109.651 24.9247C109.499 25.2399 109.283 25.5196 109.015 25.7454C108.707 26.0013 108.354 26.1971 107.974 26.3226C107.518 26.476 107.039 26.5507 106.558 26.5436H105.963V21.1502Z"
              fill="white"/>
        <path fill-rule="evenodd" clip-rule="evenodd"
              d="M124.31 21.3801C124.335 21.27 124.371 21.1627 124.418 21.06C124.462 20.9612 124.522 20.8699 124.594 20.7894C124.657 20.7144 124.745 20.6647 124.842 20.6496H125V20.4512H122.218V20.6496H122.317C122.419 20.6484 122.518 20.6873 122.592 20.7578C122.675 20.8348 122.742 20.9266 122.79 21.0284C122.843 21.136 122.882 21.2495 122.908 21.3666C122.933 21.4716 122.946 21.5789 122.948 21.6868V32.3294C122.947 32.4477 122.933 32.5656 122.908 32.6811C122.883 32.8055 122.843 32.9266 122.79 33.0419C122.743 33.1469 122.675 33.2418 122.592 33.3215C122.518 33.392 122.419 33.4309 122.317 33.4297H122.218V33.6281H125V33.4297H124.86C124.765 33.4155 124.678 33.3694 124.612 33.2989C124.533 33.2175 124.469 33.1229 124.423 33.0193C124.371 32.9082 124.332 32.7918 124.305 32.6721C124.28 32.5612 124.266 32.4478 124.265 32.3339V21.6868C124.268 21.5832 124.283 21.4803 124.31 21.3801Z"
              fill="white"/>
        <path fill-rule="evenodd" clip-rule="evenodd"
              d="M113.57 32.7127C113.538 32.8291 113.496 32.9424 113.443 33.0509C113.395 33.1527 113.327 33.2445 113.245 33.3215C113.177 33.3897 113.084 33.4285 112.988 33.4297H112.889V33.6281H116.334C116.945 33.6323 117.553 33.5441 118.137 33.3666C118.664 33.2112 119.157 32.9572 119.589 32.618C119.992 32.2967 120.322 31.8922 120.554 31.4319C120.797 30.9417 120.919 30.4006 120.91 29.8536C120.931 29.2265 120.788 28.6047 120.495 28.0498C120.229 27.5757 119.854 27.1721 119.4 26.8728C118.924 26.5641 118.395 26.347 117.84 26.2324C117.247 26.1048 116.642 26.0413 116.036 26.043H114.931V21.7499C114.941 21.5195 114.995 21.2931 115.089 21.0825C115.194 20.8239 115.345 20.6736 115.54 20.6315H115.68V20.4331H112.898V20.6315H112.997C113.046 20.6331 113.094 20.6447 113.138 20.6656C113.182 20.6866 113.222 20.7164 113.254 20.7533C113.335 20.8366 113.405 20.9306 113.461 21.0329C113.523 21.1456 113.567 21.2673 113.592 21.3936C113.616 21.5048 113.63 21.6181 113.633 21.7319V32.3744C113.63 32.4829 113.614 32.5906 113.583 32.6946L113.57 32.7127ZM114.922 26.724H115.572C116.861 26.724 117.838 27.0246 118.502 27.6259C118.828 27.9157 119.086 28.2735 119.258 28.674C119.431 29.0745 119.513 29.508 119.499 29.9438C119.518 30.3625 119.437 30.7796 119.264 31.1613C119.091 31.5429 118.83 31.8782 118.502 32.1399C117.85 32.6601 116.762 32.9201 115.238 32.9201H114.94L114.922 26.724Z"
              fill="white"/>
        <path fill-rule="evenodd" clip-rule="evenodd"
              d="M25.8954 16.8166C26.8353 16.5027 27.7084 16.0164 28.47 15.3825C29.1342 14.8175 29.6732 14.1202 30.0527 13.3352C30.4109 12.5971 30.5989 11.7881 30.6028 10.9677C30.6144 10.0461 30.4618 9.12988 30.1519 8.26192C29.826 7.39758 29.2971 6.62426 28.6098 6.00713C27.8027 5.30685 26.8582 4.78306 25.8368 4.46937C24.4902 4.06707 23.0889 3.87838 21.6839 3.91018H20.71V17.3487H22.4279C23.6054 17.3678 24.7777 17.1879 25.8954 16.8166Z"
              fill="url(#paint0_linear_3695_96)"/>
        <path fill-rule="evenodd" clip-rule="evenodd"
              d="M27.6179 25.5599C27.5524 25.3547 27.4517 25.1625 27.3203 24.9917C27.1863 24.824 27.0189 24.6858 26.8288 24.5859C26.6139 24.4796 26.3712 24.4429 26.1344 24.4809C25.8977 24.5189 25.6786 24.6296 25.5077 24.7978C25.3344 25.0301 25.2312 25.307 25.2101 25.596V25.7403C25.2034 25.7746 25.2034 25.8098 25.2101 25.8441C25.2959 26.2031 25.4802 26.531 25.7422 26.7911C26.0345 27.1091 26.3446 27.4102 26.671 27.693C26.9828 27.5618 27.2481 27.3404 27.4331 27.0571C27.6086 26.8033 27.7072 26.5042 27.7171 26.1958C27.7168 25.98 27.6834 25.7656 27.6179 25.5599Z"
              fill="url(#paint1_linear_3695_96)"/>
        <path fill-rule="evenodd" clip-rule="evenodd"
              d="M24.6603 31.6707C24.7711 31.912 24.9238 32.1318 25.1112 32.32C25.3098 32.5184 25.5418 32.6802 25.7965 32.798C26.0609 32.9215 26.348 32.9891 26.6397 32.9965C27.1269 32.9927 27.6004 32.8348 27.9925 32.5455C28.4436 32.2189 28.8421 31.825 29.1738 31.3775L27.6498 30.0878L26.0806 28.771C25.6067 28.9925 25.1993 29.3346 24.8992 29.7631C24.6501 30.1143 24.5119 30.5321 24.5024 30.9626C24.5046 31.2071 24.5584 31.4484 24.6603 31.6707Z"
              fill="url(#paint2_linear_3695_96)"/>
        <path fill-rule="evenodd" clip-rule="evenodd"
              d="M37.3124 0H0V35.9233H37.3124V0ZM20.8093 31.7248C20.876 32.0408 20.99 32.3449 21.1475 32.6268C21.2825 32.8937 21.449 33.1435 21.6435 33.3708C21.7323 33.4719 21.8375 33.5572 21.9546 33.6234H18.0588L7.43543 6.72828L7.50758 30.8365C7.50886 31.1397 7.54211 31.4421 7.60677 31.7384C7.67364 32.0543 7.78765 32.3583 7.94495 32.6403C8.09037 32.9078 8.27249 33.1537 8.48604 33.3708C8.57998 33.4663 8.68793 33.5469 8.80618 33.6098H3.60724C3.72718 33.5453 3.83789 33.4649 3.9364 33.3708C4.17003 33.1623 4.36404 32.9133 4.50905 32.6358C4.64814 32.3472 4.75694 32.0449 4.83371 31.7339C4.91372 31.4398 4.95614 31.1367 4.95996 30.8319V5.49717C4.9585 5.22506 4.93437 4.95355 4.88781 4.68545C4.83955 4.37211 4.74376 4.06797 4.60374 3.78353C4.45494 3.49569 4.24392 3.24459 3.986 3.04847C3.88807 2.97033 3.78047 2.90516 3.66586 2.85456H7.39485L18.1399 30.1239L18.167 5.50168C18.1467 4.93285 18.0101 4.3742 17.7657 3.86019C17.6044 3.43299 17.2936 3.07885 16.8909 2.86358H22.8384C26.2292 2.86358 28.8309 3.52198 30.5714 4.82524C32.3119 6.12851 33.1461 7.95038 33.1461 10.3044C33.1637 11.5006 32.8516 12.6785 32.2442 13.7091C31.637 14.7089 30.8257 15.5694 29.8635 16.2345C28.8376 16.9423 27.705 17.4813 26.5087 17.8308C25.307 18.1963 24.0584 18.3847 22.8023 18.39H20.7101V30.8319C20.7112 31.1352 20.7445 31.4376 20.8093 31.7339V31.7248ZM33.7503 33.6098H32.8485C32.4901 33.6144 32.1358 33.5324 31.8159 33.3708C31.5309 33.2259 31.2606 33.0537 31.0088 32.8567L29.656 31.797C29.2397 32.3861 28.7053 32.8822 28.0869 33.2536C27.5075 33.5625 26.8586 33.7178 26.2021 33.7045C25.7948 33.7106 25.3897 33.6418 25.0072 33.5016C24.6745 33.3791 24.3684 33.1938 24.1054 32.956C23.8615 32.7315 23.6679 32.4579 23.5373 32.1533C23.4089 31.854 23.343 31.5318 23.3434 31.2062C23.3412 30.5808 23.5352 29.9704 23.898 29.461C24.3149 28.9327 24.8511 28.5108 25.4626 28.2299C25.1002 27.9201 24.7803 27.5638 24.5112 27.1702C24.2615 26.8043 24.125 26.373 24.1189 25.93C24.1179 25.6406 24.1746 25.3539 24.2858 25.0868C24.3885 24.8263 24.5418 24.5888 24.7367 24.3878C24.943 24.1819 25.1862 24.0166 25.4536 23.9007C25.7384 23.7789 26.0458 23.719 26.3554 23.7249C26.7024 23.7183 27.0468 23.7859 27.3654 23.9233C27.6434 24.0463 27.8946 24.2225 28.1049 24.4419C28.3047 24.6564 28.4581 24.9096 28.5558 25.186C28.6539 25.4579 28.7043 25.7447 28.7046 26.0338C28.6931 26.4496 28.5734 26.8552 28.3574 27.2108C28.0959 27.6314 27.7352 27.9813 27.3068 28.2299L28.5468 29.2761C28.9707 29.6369 29.4035 29.9932 29.8274 30.3314C29.9789 30.0011 30.107 29.6605 30.2107 29.3122C30.3279 28.9289 30.4271 28.5726 30.4947 28.2525C30.5661 27.9823 30.6218 27.7083 30.6616 27.4317C30.6841 27.1882 30.6976 27.0214 30.6976 26.9176C30.696 26.819 30.6555 26.725 30.5849 26.6561C30.5563 26.6211 30.5206 26.5926 30.4802 26.5724C30.4398 26.5521 30.3956 26.5407 30.3504 26.5388H30.2107V26.1555H31.9241V26.5343H31.8114C31.7285 26.5429 31.6515 26.5814 31.5949 26.6426C31.5167 26.7131 31.4657 26.8088 31.4507 26.9131C31.3946 27.4162 31.3118 27.916 31.2027 28.4103C31.1089 28.8458 30.993 29.2763 30.8555 29.7C30.735 30.0876 30.5701 30.4598 30.364 30.8094C30.5353 30.9672 30.7157 31.1296 30.9051 31.2919L31.5634 31.815L32.1811 32.3246C32.384 32.5005 32.5734 32.6538 32.7493 32.7756C32.9074 32.888 33.0715 32.9918 33.2407 33.0867C33.3629 33.1637 33.5025 33.2086 33.6466 33.2175H33.7593L33.7503 33.6098Z"
              fill="url(#paint3_linear_3695_96)"/>
        <path fill-rule="evenodd" clip-rule="evenodd"
              d="M108.29 44.0042C108.251 44.0041 108.213 43.9936 108.179 43.9737C108.146 43.9539 108.119 43.9255 108.1 43.8914C108.053 43.8198 108.015 43.7425 107.987 43.6615L106.684 40.1079L105.354 43.7156C105.326 43.7934 105.287 43.8664 105.237 43.932C105.221 43.9574 105.199 43.9787 105.173 43.9943C105.147 44.0099 105.118 44.0195 105.088 44.0222H105.061V44.0808H105.706V44.0222H105.679C105.662 44.0212 105.646 44.0167 105.631 44.0089C105.616 44.0012 105.603 43.9903 105.593 43.9771C105.564 43.9433 105.55 43.8997 105.553 43.8554C105.548 43.827 105.548 43.798 105.553 43.7697L106.058 42.3627H107.072L107.595 43.7922C107.6 43.8251 107.6 43.8586 107.595 43.8914C107.595 43.9771 107.55 44.0222 107.455 44.0222H107.428V44.0808H108.29V44.0222V44.0042ZM106.13 42.1462L106.581 40.9196L107.031 42.1462H106.13Z"
              fill="white"/>
        <path fill-rule="evenodd" clip-rule="evenodd"
              d="M20.9943 40.7215C20.8295 40.5313 20.6267 40.3777 20.3991 40.2705C20.143 40.1674 19.8676 40.1213 19.5919 40.1353C19.3348 40.1317 19.0797 40.1824 18.8434 40.2841C18.6295 40.3776 18.4353 40.5107 18.2708 40.6764C18.1092 40.8401 17.9752 41.029 17.874 41.2356C17.7723 41.4403 17.7024 41.6592 17.6666 41.885H17.2833V40.5456C17.2801 40.5172 17.2801 40.4884 17.2833 40.4599C17.2911 40.4255 17.3032 40.3922 17.3194 40.3607C17.3335 40.3313 17.3517 40.3039 17.3735 40.2796C17.392 40.258 17.4176 40.2437 17.4456 40.239H17.4907V40.1804H16.6836V40.239H16.7106C16.7242 40.239 16.7376 40.2419 16.75 40.2473C16.7624 40.2527 16.7736 40.2606 16.7828 40.2705C16.8051 40.2945 16.8234 40.3219 16.8369 40.3517C16.8519 40.3836 16.864 40.4168 16.873 40.4509C16.877 40.4824 16.877 40.5142 16.873 40.5456V43.6798C16.8764 43.7143 16.8764 43.749 16.873 43.7835C16.8652 43.8194 16.8531 43.8542 16.8369 43.8872C16.8225 43.9165 16.8043 43.9438 16.7828 43.9684C16.774 43.9791 16.763 43.9879 16.7506 43.9941C16.7381 44.0003 16.7245 44.0038 16.7106 44.0045H16.6836V44.0631H17.5042V44.0045H17.4637C17.4491 44.0042 17.4347 44.0008 17.4215 43.9946C17.4083 43.9884 17.3965 43.9795 17.387 43.9684C17.3628 43.9433 17.343 43.9144 17.3284 43.8827C17.3135 43.8492 17.3014 43.8145 17.2923 43.779C17.288 43.7461 17.288 43.7127 17.2923 43.6798V42.0744H17.6575V42.1646C17.6572 42.415 17.6999 42.6636 17.7838 42.8996C17.863 43.1283 17.9855 43.3396 18.1445 43.5219C18.3173 43.7148 18.5295 43.8681 18.7668 43.9716C19.0041 44.0751 19.2609 44.1263 19.5198 44.1217C19.7841 44.1234 20.0461 44.0728 20.2908 43.9729C20.5248 43.8768 20.7377 43.7359 20.9176 43.558C21.0992 43.3768 21.2419 43.1605 21.3369 42.9222C21.439 42.6639 21.4896 42.3881 21.4857 42.1104C21.4859 41.8541 21.4432 41.5996 21.3595 41.3574C21.2801 41.1228 21.1543 40.9065 20.9897 40.7215H20.9943ZM20.9943 42.7779C20.9417 42.9728 20.8563 43.1573 20.7417 43.3235C20.608 43.5034 20.4348 43.6501 20.2355 43.7525C20.0362 43.855 19.816 43.9103 19.5919 43.9143C19.3623 43.9188 19.136 43.8595 18.9381 43.7429C18.7458 43.6269 18.5787 43.4736 18.4466 43.292C18.3079 43.1142 18.1997 42.9145 18.1265 42.7012C18.0639 42.5014 18.0334 42.2928 18.0363 42.0834C18.0378 41.8813 18.0697 41.6807 18.131 41.4881C18.1948 41.2853 18.2924 41.0948 18.4196 40.9244C18.541 40.7577 18.6942 40.6167 18.8705 40.5096C19.0639 40.3991 19.2836 40.343 19.5063 40.3472C19.738 40.3435 19.9667 40.4011 20.1691 40.5141C20.3638 40.6284 20.5327 40.782 20.6651 40.965C20.8021 41.1449 20.9087 41.346 20.9807 41.5603C21.0521 41.7709 21.0886 41.9918 21.0889 42.2142C21.089 42.4032 21.0632 42.5913 21.0123 42.7734L20.9943 42.7779Z"
              fill="white"/>
        <path fill-rule="evenodd" clip-rule="evenodd"
              d="M25.7333 40.4325C25.4419 40.2477 25.0991 40.1608 24.7548 40.1845H23.9297V40.2431H23.9567C23.9877 40.2488 24.0166 40.2626 24.0404 40.2832C24.0642 40.3039 24.082 40.3305 24.092 40.3604C24.1207 40.4195 24.136 40.4841 24.1371 40.5498V43.6839C24.1405 43.7184 24.1405 43.7532 24.1371 43.7876C24.1293 43.8236 24.1172 43.8584 24.101 43.8914C24.0859 43.9213 24.0661 43.9487 24.0424 43.9725C24.0329 43.9836 24.0211 43.9925 24.0079 43.9988C23.9947 44.005 23.9804 44.0083 23.9658 44.0086H23.9387V44.0672H24.7503V44.0086H24.7233C24.7087 44.0083 24.6943 44.005 24.6811 43.9988C24.6679 43.9925 24.6561 43.9836 24.6466 43.9725C24.6241 43.9477 24.6045 43.9205 24.588 43.8914C24.5707 43.8589 24.5585 43.8239 24.5519 43.7876C24.5482 43.7532 24.5482 43.7184 24.5519 43.6839V42.1822H24.7729C24.9258 42.1794 25.0776 42.1551 25.2238 42.1101C25.375 42.0655 25.5181 41.997 25.6476 41.9072C25.7717 41.8219 25.8763 41.7112 25.9543 41.5825C26.0608 41.3963 26.0975 41.1784 26.0578 40.9676C26.0181 40.7569 25.9047 40.5672 25.7378 40.4325H25.7333ZM25.6161 41.4878C25.5719 41.5795 25.5089 41.661 25.4312 41.7268C25.3407 41.8027 25.2367 41.8608 25.1246 41.8981C24.9894 41.943 24.8476 41.9644 24.7052 41.9613H24.5294V40.3874H24.6106C24.7799 40.3835 24.9488 40.4063 25.1111 40.4551C25.2322 40.4914 25.3444 40.5529 25.4402 40.6355C25.5208 40.7084 25.5827 40.7996 25.6206 40.9015C25.6578 41.0041 25.6762 41.1126 25.6747 41.2217C25.6746 41.3136 25.6546 41.4044 25.6161 41.4878Z"
              fill="white"/>
        <path fill-rule="evenodd" clip-rule="evenodd"
              d="M30.9367 40.2388H30.9637C30.9938 40.2385 31.0229 40.2498 31.0449 40.2704C31.0701 40.2939 31.0914 40.3213 31.108 40.3515C31.1248 40.3827 31.1369 40.4161 31.1441 40.4507C31.1474 40.4822 31.1474 40.514 31.1441 40.5455V40.6221L29.2142 43.2602V40.5545C29.215 40.4902 29.2305 40.427 29.2593 40.3696C29.2736 40.3402 29.2918 40.3129 29.3134 40.2884C29.3317 40.2666 29.3574 40.2521 29.3856 40.2478H29.4307V40.1802H28.6235V40.2388H28.6506C28.6807 40.2385 28.7098 40.2498 28.7318 40.2704C28.7569 40.294 28.7782 40.3214 28.7949 40.3515C28.8115 40.3828 28.8236 40.4162 28.831 40.4507C28.8343 40.4822 28.8343 40.514 28.831 40.5455V43.6796C28.8345 43.7141 28.8345 43.7488 28.831 43.7833C28.8236 43.8193 28.8114 43.8542 28.7949 43.887C28.7786 43.9175 28.7572 43.9449 28.7318 43.9682C28.7098 43.9888 28.6807 44.0001 28.6506 43.9998H28.6235V44.0584H29.4487V43.9998H29.4216C29.4064 43.9996 29.3913 43.9963 29.3774 43.9901C29.3634 43.9839 29.3509 43.9749 29.3405 43.9637C29.3166 43.9401 29.2967 43.9127 29.2819 43.8825C29.2663 43.8493 29.2542 43.8145 29.2458 43.7788C29.2414 43.7444 29.2414 43.7095 29.2458 43.6751V43.621L31.1757 40.9829V43.6886C31.1791 43.7231 31.1791 43.7579 31.1757 43.7923C31.1684 43.8284 31.1563 43.8633 31.1396 43.8961C31.1233 43.9265 31.102 43.954 31.0765 43.9772C31.0545 43.9978 31.0254 44.0091 30.9953 44.0088H30.9682V44.0674H31.7934V44.0088H31.7663C31.7511 44.0086 31.736 44.0053 31.7221 43.9991C31.7081 43.9929 31.6956 43.9839 31.6852 43.9727C31.6609 43.9477 31.6411 43.9187 31.6266 43.887C31.6116 43.8535 31.5996 43.8188 31.5905 43.7833C31.5861 43.7504 31.5861 43.717 31.5905 43.6841V40.5455C31.5863 40.514 31.5863 40.4822 31.5905 40.4507C31.5995 40.4166 31.6115 40.3834 31.6266 40.3515C31.641 40.3211 31.6608 40.2936 31.6852 40.2704C31.7072 40.2498 31.7362 40.2385 31.7663 40.2388H31.7934V40.1802H30.9367V40.2388Z"
              fill="white"/>
        <path fill-rule="evenodd" clip-rule="evenodd"
              d="M37.5423 43.7836C37.496 43.736 37.4579 43.6812 37.4295 43.6212L36.0768 40.0947L34.7241 43.6392C34.7118 43.6998 34.6791 43.7542 34.6315 43.7936C34.5839 43.833 34.5243 43.8549 34.4626 43.8557H34.2056V44.5908H34.2687C34.2753 44.5332 34.2905 44.477 34.3138 44.4239C34.339 44.3626 34.3724 44.305 34.413 44.2526C34.4537 44.2002 34.5024 44.1545 34.5573 44.1173C34.6104 44.081 34.6734 44.0621 34.7376 44.0631H37.425C37.4892 44.063 37.5519 44.0818 37.6054 44.1173C37.6606 44.1524 37.7093 44.1966 37.7497 44.248C37.7899 44.3016 37.8218 44.3609 37.8444 44.4239C37.8657 44.4789 37.8793 44.5366 37.885 44.5953H37.9436V43.8557H37.7001C37.6695 43.8559 37.6392 43.8495 37.6112 43.8371C37.5832 43.8246 37.5582 43.8064 37.5378 43.7836H37.5423ZM34.8774 43.8557L35.9912 40.9335L37.1139 43.8557H34.8774Z"
              fill="white"/>
        <path fill-rule="evenodd" clip-rule="evenodd"
              d="M42.7907 40.2388H42.8358C42.8659 40.2385 42.8949 40.2498 42.9169 40.2704C42.9422 40.2939 42.9635 40.3213 42.9801 40.3515C42.9968 40.3827 43.009 40.4161 43.0161 40.4507C43.0195 40.4822 43.0195 40.514 43.0161 40.5455V40.6221L41.0863 43.2602V40.5545C41.0828 40.5245 41.0828 40.4942 41.0863 40.4643C41.0943 40.4313 41.1064 40.3995 41.1223 40.3696C41.1367 40.3402 41.1549 40.313 41.1764 40.2884C41.195 40.2669 41.2205 40.2525 41.2486 40.2478H41.2937V40.1802H40.4775V40.2388H40.5046C40.5347 40.2385 40.5638 40.2498 40.5858 40.2704C40.6094 40.2942 40.6292 40.3216 40.6444 40.3515C40.6611 40.3827 40.6733 40.4161 40.6804 40.4507C40.6838 40.4822 40.6838 40.514 40.6804 40.5455V43.6796C40.684 43.7141 40.684 43.7488 40.6804 43.7833C40.6732 43.8194 40.6611 43.8543 40.6444 43.887C40.6295 43.9172 40.6097 43.9446 40.5858 43.9682C40.5638 43.9888 40.5347 44.0001 40.5046 43.9998H40.4775V44.0584H41.3027V43.9998H41.2756C41.2604 43.9996 41.2453 43.9963 41.2314 43.9901C41.2174 43.9839 41.2049 43.9749 41.1945 43.9637C41.1707 43.9399 41.151 43.9125 41.1359 43.8825C41.1204 43.8493 41.1083 43.8145 41.0998 43.7788C41.0954 43.7444 41.0954 43.7095 41.0998 43.6751V43.621L43.0297 40.9829V43.6886C43.0331 43.7231 43.0331 43.7579 43.0297 43.7923C43.0224 43.8284 43.0103 43.8633 42.9936 43.8961C42.9773 43.9265 42.956 43.954 42.9305 43.9772C42.9085 43.9978 42.8794 44.0091 42.8493 44.0088H42.7907V44.0674H43.6158V44.0088H43.5888C43.5735 44.0086 43.5585 44.0053 43.5445 43.9991C43.5306 43.9929 43.518 43.9839 43.5076 43.9727C43.4834 43.9477 43.4635 43.9187 43.449 43.887C43.4339 43.8536 43.4219 43.8189 43.4129 43.7833C43.4086 43.7504 43.4086 43.717 43.4129 43.6841V40.5455C43.4088 40.514 43.4088 40.4822 43.4129 40.4507C43.4217 40.4166 43.4338 40.3834 43.449 40.3515C43.4634 40.3211 43.4833 40.2936 43.5076 40.2704C43.5296 40.2498 43.5587 40.2385 43.5888 40.2388H43.6158V40.1802H42.7907V40.2388Z"
              fill="white"/>
        <path fill-rule="evenodd" clip-rule="evenodd"
              d="M48.0531 40.2388H48.0982C48.1265 40.2427 48.1523 40.2572 48.1704 40.2794C48.1904 40.3041 48.2071 40.3314 48.22 40.3606C48.234 40.3909 48.2445 40.4226 48.2515 40.4553C48.2549 40.4852 48.2549 40.5155 48.2515 40.5455V41.8758C48.1565 41.9436 48.0553 42.0025 47.9494 42.0516C47.8498 42.1008 47.7404 42.127 47.6293 42.1283C47.5225 42.1275 47.4168 42.1061 47.3181 42.0652C47.2165 42.0238 47.1233 41.9642 47.0431 41.8893C46.9602 41.811 46.8928 41.7176 46.8447 41.6142C46.7931 41.5042 46.7669 41.384 46.768 41.2625V40.5455C46.7639 40.514 46.7639 40.4822 46.768 40.4507C46.7776 40.4162 46.7912 40.3829 46.8086 40.3515C46.8252 40.3213 46.8465 40.2939 46.8718 40.2704C46.8937 40.2498 46.9228 40.2385 46.9529 40.2388H46.98V40.1802H46.1729V40.2388H46.1999C46.2127 40.2392 46.2253 40.2422 46.237 40.2476C46.2486 40.2531 46.259 40.2608 46.2675 40.2704C46.2904 40.2939 46.3088 40.3214 46.3217 40.3515C46.3351 40.3836 46.3456 40.4168 46.3532 40.4507C46.3565 40.4822 46.3565 40.514 46.3532 40.5455V41.2264C46.3508 41.3802 46.3768 41.533 46.4299 41.6774C46.4801 41.8128 46.5567 41.937 46.6553 42.0426C46.7565 42.1512 46.8794 42.2373 47.016 42.2952C47.1591 42.3543 47.3122 42.3849 47.4669 42.3854C47.6108 42.3867 47.7534 42.3591 47.8863 42.3042C47.9982 42.2604 48.1043 42.2029 48.2019 42.1328V43.6976C48.2056 43.7306 48.2056 43.7639 48.2019 43.7969C48.195 43.8316 48.1829 43.865 48.1658 43.8961C48.1491 43.9262 48.1278 43.9536 48.1027 43.9772C48.0926 43.9873 48.0807 43.9952 48.0675 44.0007C48.0544 44.0061 48.0403 44.0088 48.0261 44.0088H47.999V44.0674H48.8287V44.0088H48.7836C48.7542 44.0044 48.7271 43.9901 48.7069 43.9682C48.6833 43.9444 48.6635 43.917 48.6483 43.887C48.6322 43.8572 48.6201 43.8254 48.6122 43.7923C48.6089 43.7609 48.6089 43.7291 48.6122 43.6976V40.5409C48.6088 40.511 48.6088 40.4807 48.6122 40.4507C48.6202 40.4178 48.6323 40.386 48.6483 40.356C48.6635 40.3261 48.6833 40.2987 48.7069 40.2749C48.7271 40.253 48.7542 40.2387 48.7836 40.2343H48.8287V40.1802H48.0035L48.0531 40.2388Z"
              fill="white"/>
        <path fill-rule="evenodd" clip-rule="evenodd"
              d="M53.7841 43.5173C53.7666 43.5743 53.7391 43.6277 53.7029 43.6751C53.6658 43.725 53.6199 43.7677 53.5676 43.8014C53.5098 43.8382 53.4423 43.857 53.3738 43.8555H52.1022V42.0517H53.0671C53.1492 42.0486 53.2294 42.0759 53.2926 42.1283C53.3193 42.1502 53.3408 42.1777 53.3556 42.2089C53.3704 42.2401 53.3781 42.2742 53.3783 42.3087H53.4369V41.6007H53.3783C53.378 41.6376 53.3699 41.674 53.3543 41.7075C53.3387 41.7409 53.3162 41.7707 53.2881 41.7946C53.2263 41.8498 53.1455 41.8789 53.0626 41.8758H52.0977V40.3876H53.2655C53.3182 40.3835 53.3712 40.3907 53.4209 40.4086C53.4707 40.4264 53.5161 40.4546 53.5541 40.4913C53.6143 40.5573 53.6508 40.6414 53.6578 40.7303H53.7164V40.1802H51.4619V40.2388H51.489C51.5191 40.2385 51.5481 40.2498 51.5701 40.2704C51.5955 40.2938 51.6168 40.3212 51.6333 40.3515C51.6507 40.3829 51.6643 40.4162 51.6738 40.4507C51.6778 40.4822 51.6778 40.514 51.6738 40.5455V43.7022C51.678 43.7351 51.678 43.7684 51.6738 43.8014C51.6643 43.8359 51.6507 43.8692 51.6333 43.9006C51.6168 43.9309 51.5955 43.9583 51.5701 43.9817C51.5481 44.0023 51.5191 44.0136 51.489 44.0133H51.4619V44.0719H53.8427V43.373H53.7841C53.7909 43.4208 53.7909 43.4694 53.7841 43.5173Z"
              fill="white"/>
        <path fill-rule="evenodd" clip-rule="evenodd"
              d="M59.2356 43.6028C59.1619 43.6807 59.0748 43.7449 58.9786 43.7922C58.8902 43.8355 58.796 43.8659 58.699 43.8824C58.6171 43.8965 58.5342 43.9041 58.451 43.9049C58.2148 43.9065 57.9816 43.8524 57.7702 43.7471C57.5631 43.6454 57.3766 43.5063 57.2201 43.3367C57.0621 43.1655 56.9368 42.9668 56.8503 42.7505C56.7616 42.5344 56.7156 42.3031 56.715 42.0695C56.7166 41.8594 56.7516 41.6509 56.8187 41.4517C56.8856 41.2471 56.9912 41.0572 57.1299 40.8925C57.2751 40.7215 57.4549 40.5832 57.6574 40.4867C57.89 40.3776 58.1446 40.3236 58.4014 40.3288C58.4937 40.3294 58.5858 40.3385 58.6765 40.3559C58.7691 40.3726 58.8588 40.403 58.9425 40.4461C59.0274 40.491 59.1014 40.5541 59.1589 40.631C59.2242 40.7204 59.2675 40.8239 59.2852 40.9331H59.3438V40.2883C59.2958 40.2931 59.2475 40.2931 59.1995 40.2883L59.0417 40.2432L58.7667 40.171C58.6527 40.1459 58.5362 40.1338 58.4195 40.1349C58.1009 40.1272 57.7843 40.1872 57.4906 40.3108C57.2439 40.4145 57.0214 40.568 56.8368 40.7618C56.6649 40.948 56.5329 41.1675 56.449 41.4066C56.3662 41.6382 56.3235 41.8822 56.3228 42.1282C56.323 42.3741 56.3657 42.6182 56.449 42.8497C56.5314 43.0862 56.6601 43.304 56.8278 43.4901C57.0068 43.6821 57.2232 43.8355 57.4635 43.941C57.7475 44.0653 58.0555 44.1254 58.3654 44.1169C58.4955 44.1171 58.6253 44.105 58.7531 44.0808L59.0868 44.0041L59.2987 43.95C59.3592 43.935 59.4213 43.9275 59.4836 43.9275V43.2916H59.425C59.3862 43.4084 59.3215 43.5148 59.2356 43.6028Z"
              fill="white"/>
        <path fill-rule="evenodd" clip-rule="evenodd"
              d="M64.5382 43.7878C64.483 43.7276 64.4333 43.6628 64.3894 43.5939C64.3485 43.5336 64.3123 43.4703 64.2812 43.4045L63.8302 42.4665C63.7491 42.2948 63.6228 42.1483 63.465 42.0426C63.2809 41.9336 63.0703 41.8774 62.8563 41.8803L64.2316 40.4823C64.2915 40.4201 64.3563 40.3628 64.4254 40.311C64.4858 40.2667 64.5581 40.2416 64.6329 40.2388V40.1802H64.0061V40.2388C64.0377 40.2388 64.0512 40.2388 64.0512 40.2929C64.0517 40.3138 64.048 40.3346 64.0403 40.3539C64.0325 40.3733 64.0209 40.3909 64.0061 40.4057L62.6534 41.7585V40.5409C62.6494 40.5095 62.6494 40.4777 62.6534 40.4462C62.6629 40.4117 62.6765 40.3784 62.694 40.347C62.7105 40.3167 62.7318 40.2893 62.7571 40.2659C62.7791 40.2453 62.8082 40.234 62.8383 40.2343H62.8653V40.1802H62.0402V40.2388H62.0672C62.0814 40.2388 62.0955 40.2415 62.1087 40.247C62.1218 40.2524 62.1338 40.2603 62.1439 40.2704C62.1691 40.2939 62.1904 40.3213 62.207 40.3515C62.2236 40.3828 62.2357 40.4162 62.2431 40.4507C62.2464 40.4822 62.2464 40.514 62.2431 40.5455V43.6796C62.2466 43.7141 62.2466 43.7488 62.2431 43.7833C62.2362 43.8195 62.224 43.8544 62.207 43.887C62.1896 43.9168 62.1684 43.9441 62.1439 43.9682C62.1335 43.9794 62.1209 43.9884 62.107 43.9946C62.093 44.0008 62.078 44.0041 62.0627 44.0043H62.0356V44.0629H62.8608V44.0043H62.8202C62.7916 44.0005 62.7648 43.9879 62.7436 43.9682C62.7189 43.9453 62.699 43.9177 62.6849 43.887C62.6692 43.8539 62.6571 43.8191 62.6489 43.7833C62.6452 43.7504 62.6452 43.7171 62.6489 43.6841V42.0697C62.8072 42.0747 62.9619 42.118 63.0998 42.196C63.2322 42.275 63.3388 42.391 63.4064 42.5297L63.8573 43.4767C63.8927 43.5493 63.9318 43.6201 63.9745 43.6886C64.0188 43.7583 64.0718 43.822 64.1324 43.878C64.194 43.9359 64.2659 43.9818 64.3443 44.0133C64.4363 44.0485 64.5344 44.0653 64.6329 44.0629H64.9305V44.0043C64.8526 44.0027 64.7765 43.9809 64.7095 43.9412C64.6457 43.8981 64.5881 43.8465 64.5382 43.7878Z"
              fill="white"/>
        <path fill-rule="evenodd" clip-rule="evenodd"
              d="M70.2196 43.8914C70.1728 43.8197 70.1349 43.7424 70.1069 43.6615L68.8038 40.1079L67.4736 43.7156C67.4461 43.7934 67.4066 43.8665 67.3564 43.932C67.3401 43.9574 67.3182 43.9787 67.2924 43.9943C67.2666 44.0099 67.2376 44.0195 67.2076 44.0222H67.1851V44.0808H67.8298V44.0222H67.8028C67.7861 44.0212 67.7699 44.0167 67.7551 44.0089C67.7403 44.0012 67.7274 43.9903 67.7171 43.9771C67.6883 43.9433 67.6738 43.8997 67.6765 43.8554C67.6718 43.827 67.6718 43.798 67.6765 43.7697L68.1816 42.3627H69.1961L69.7191 43.7922C69.7242 43.8251 69.7242 43.8586 69.7191 43.8914C69.7191 43.9771 69.6741 44.0222 69.5794 44.0222H69.5523V44.0808H70.4135V44.0222H70.3865C70.3477 44.0221 70.3097 44.0116 70.2764 43.9918C70.2431 43.9719 70.2157 43.9435 70.1971 43.9095L70.2196 43.8914ZM68.2492 42.1462L68.7001 40.9196L69.151 42.1462H68.2492Z"
              fill="white"/>
        <path fill-rule="evenodd" clip-rule="evenodd"
              d="M74.1289 40.257C73.9671 40.2978 73.8142 40.3681 73.678 40.4645C73.5621 40.5472 73.4666 40.6552 73.3984 40.7801C73.3325 40.9036 73.2985 41.0416 73.2992 41.1815C73.2985 41.2933 73.3216 41.404 73.3668 41.5062C73.4143 41.6125 73.4834 41.7077 73.5697 41.7858C73.6649 41.8713 73.7749 41.9386 73.8944 41.9842C74.0387 42.0396 74.1909 42.0715 74.3453 42.0789C74.2294 42.1225 74.1279 42.1974 74.0522 42.2954C73.9886 42.3838 73.9299 42.4756 73.8764 42.5704L73.4255 43.4047C73.3863 43.4737 73.3426 43.5399 73.2947 43.6031C73.2427 43.6735 73.1838 43.7384 73.1188 43.7971C73.0538 43.8563 72.981 43.9064 72.9024 43.9459C72.824 43.9849 72.7375 44.005 72.6499 44.0045V44.0631H72.9565C73.1466 44.0657 73.3315 44.0019 73.4796 43.8827C73.6317 43.7598 73.7562 43.6061 73.8448 43.4318L73.9981 43.1657L74.1379 42.9177C74.192 42.814 74.2506 42.7102 74.3092 42.611C74.3651 42.5174 74.4285 42.4284 74.4986 42.345C74.5608 42.2713 74.6338 42.2074 74.715 42.1556C74.7885 42.1094 74.872 42.0815 74.9585 42.0744V43.6663C74.9629 43.7007 74.9629 43.7356 74.9585 43.77C74.9499 43.8057 74.9379 43.8404 74.9225 43.8737C74.9064 43.9043 74.885 43.9318 74.8593 43.9549C74.8392 43.976 74.8118 43.9889 74.7827 43.991H74.7556V44.0496H75.5763V43.991H75.5492C75.5346 43.9907 75.5202 43.9873 75.507 43.9811C75.4938 43.9749 75.4821 43.966 75.4726 43.9549C75.4488 43.9311 75.429 43.9037 75.4139 43.8737C75.3974 43.8409 75.3852 43.806 75.3779 43.77C75.3741 43.7355 75.3741 43.7007 75.3779 43.6663V40.5456C75.3743 40.5142 75.3743 40.4824 75.3779 40.4509C75.3856 40.4165 75.3977 40.3831 75.4139 40.3517C75.4283 40.3213 75.4481 40.2937 75.4726 40.2706C75.4826 40.2605 75.4946 40.2526 75.5077 40.2471C75.5209 40.2417 75.535 40.239 75.5492 40.239H75.5763V40.1804H74.7421C74.5473 40.1777 74.3531 40.202 74.1649 40.2525L74.1289 40.257ZM74.945 40.3833V41.8805H74.5798C74.46 41.8819 74.3409 41.862 74.2281 41.8219C74.1243 41.7855 74.028 41.7305 73.944 41.6595C73.8646 41.5906 73.8002 41.5062 73.7546 41.4115C73.7081 41.3129 73.6849 41.2048 73.687 41.0958C73.6856 40.989 73.7134 40.8837 73.7674 40.7915C73.8215 40.6993 73.8997 40.6237 73.9936 40.5727C74.2597 40.4322 74.5589 40.3668 74.8593 40.3833H74.945Z"
              fill="white"/>
        <path fill-rule="evenodd" clip-rule="evenodd"
              d="M85.1532 41.037C84.9852 40.895 84.7927 40.785 84.5851 40.7123C84.3543 40.6326 84.1123 40.59 83.8682 40.586C83.8648 40.5546 83.8648 40.5228 83.8682 40.4913C83.8759 40.4554 83.888 40.4206 83.9042 40.3876C83.9185 40.3582 83.9367 40.3309 83.9583 40.3064C83.9766 40.2846 84.0023 40.2702 84.0305 40.2659H84.0756V40.1802H83.2549V40.2388H83.291C83.3204 40.2432 83.3475 40.2575 83.3676 40.2794C83.3918 40.3045 83.4116 40.3335 83.4263 40.3651C83.4417 40.3984 83.4538 40.4331 83.4623 40.4688C83.4663 40.5017 83.4663 40.535 83.4623 40.568V40.586C83.2246 40.5919 82.9891 40.6329 82.7634 40.7078C82.5559 40.7753 82.362 40.8791 82.1908 41.0144C82.0293 41.1429 81.8971 41.3044 81.803 41.488C81.7082 41.6799 81.6603 41.8917 81.6632 42.1058C81.6611 42.313 81.7058 42.518 81.794 42.7055C81.8817 42.8895 82.006 43.0537 82.1592 43.1881C82.3261 43.3327 82.5189 43.4444 82.7274 43.5173C82.9652 43.6004 83.2149 43.6445 83.4668 43.648V43.6796C83.4709 43.711 83.4709 43.7429 83.4668 43.7743C83.458 43.8085 83.4459 43.8417 83.4308 43.8735C83.4157 43.9048 83.3942 43.9324 83.3676 43.9547C83.3468 43.9742 83.3195 43.9854 83.291 43.9863H83.2639V44.0449H84.0846V43.9863H84.0575C84.0426 43.9866 84.0277 43.984 84.0138 43.9786C83.9998 43.9732 83.9871 43.9651 83.9764 43.9547C83.951 43.9313 83.9297 43.9038 83.9132 43.8735C83.8964 43.8424 83.8842 43.809 83.8772 43.7743C83.8738 43.7428 83.8738 43.7111 83.8772 43.6796V43.648C84.1078 43.6446 84.3362 43.6035 84.5535 43.5263C84.7607 43.4538 84.9543 43.3471 85.1262 43.2106C85.2906 43.0792 85.4258 42.9148 85.523 42.7281C85.6223 42.5342 85.6734 42.3191 85.6718 42.1013C85.6733 41.897 85.6286 41.695 85.541 41.5105C85.4523 41.3272 85.3264 41.1644 85.1713 41.0325L85.1532 41.037ZM83.4804 43.4586C83.2956 43.4504 83.1145 43.4043 82.9483 43.3233C82.7811 43.2427 82.6287 43.1344 82.4974 43.0032C82.367 42.8721 82.2602 42.7196 82.1818 42.5522C82.1048 42.3933 82.0647 42.2192 82.0645 42.0426C82.0654 41.8879 82.0961 41.7348 82.1547 41.5917C82.2158 41.4391 82.3079 41.3009 82.4252 41.1858C82.5557 41.0593 82.7086 40.9584 82.8762 40.8882C83.0718 40.8066 83.2819 40.7652 83.4939 40.7664V43.4722L83.4804 43.4586ZM85.1713 42.6379C85.1037 42.7903 85.0072 42.9281 84.8872 43.0438C84.7561 43.1683 84.6033 43.2676 84.4363 43.3369C84.2506 43.4155 84.0517 43.4584 83.8501 43.4631V40.7574C84.0404 40.7634 84.2275 40.8079 84.4002 40.8882C84.5681 40.9658 84.7208 41.0727 84.8511 41.2039C84.9787 41.3343 85.0811 41.4872 85.1532 41.6548C85.2263 41.8132 85.2647 41.9854 85.266 42.1599C85.271 42.3302 85.2386 42.4995 85.1713 42.6559V42.6379Z"
              fill="white"/>
        <path fill-rule="evenodd" clip-rule="evenodd"
              d="M90.5419 40.2343H90.5689C90.5983 40.2336 90.627 40.2432 90.6501 40.2613C90.6749 40.2818 90.6962 40.3062 90.7132 40.3335C90.73 40.3614 90.7422 40.3919 90.7493 40.4237C90.7528 40.4521 90.7528 40.4809 90.7493 40.5094V40.586L88.8284 42.9175V40.5049C88.8299 40.4479 88.8454 40.3921 88.8735 40.3425C88.8883 40.3162 88.9065 40.2919 88.9276 40.2704C88.9471 40.2508 88.9724 40.2381 88.9998 40.2343H89.0449V40.1802H88.2197V40.2343H88.2468C88.2762 40.2336 88.3049 40.2432 88.3279 40.2613C88.3529 40.2817 88.3742 40.3061 88.3911 40.3335C88.4078 40.3615 88.42 40.3919 88.4271 40.4237C88.4305 40.4522 88.4305 40.4809 88.4271 40.5094V43.2918C88.4304 43.3218 88.4304 43.352 88.4271 43.382C88.42 43.4152 88.4078 43.4471 88.3911 43.4767C88.3745 43.5043 88.3531 43.5287 88.3279 43.5488C88.3051 43.5674 88.2762 43.577 88.2468 43.5759H88.2197V43.63H89.0449V43.5759H89.0178C88.9877 43.5762 88.9587 43.5649 88.9367 43.5443C88.9134 43.5235 88.8936 43.4992 88.878 43.4722C88.8628 43.4435 88.8507 43.4132 88.842 43.382C88.8378 43.3521 88.8378 43.3217 88.842 43.2918V43.2467L90.7718 40.9017V43.2918C90.7753 43.3217 90.7753 43.352 90.7718 43.382C90.7648 43.4152 90.7526 43.4472 90.7358 43.4767C90.7191 43.5042 90.6977 43.5287 90.6726 43.5488C90.6498 43.5674 90.6209 43.577 90.5915 43.5759H90.5644V43.63H91.3896V43.5759H91.3625C91.3325 43.5757 91.3036 43.5645 91.2814 43.5443C91.2573 43.5226 91.2375 43.4966 91.2227 43.4677C91.2078 43.4389 91.1957 43.4086 91.1867 43.3775C91.1821 43.3476 91.1821 43.3172 91.1867 43.2873V40.5049C91.1823 40.4765 91.1823 40.4476 91.1867 40.4192C91.1954 40.3879 91.2075 40.3577 91.2227 40.329C91.2375 40.3014 91.2574 40.2769 91.2814 40.2568C91.3044 40.2386 91.3331 40.2291 91.3625 40.2298H91.3896V40.1802H90.5419V40.2343Z"
              fill="white"/>
        <path fill-rule="evenodd" clip-rule="evenodd"
              d="M95.7768 40.4325C95.4854 40.2477 95.1426 40.1608 94.7983 40.1845H93.9731V40.2431H94.0002C94.0312 40.2488 94.0601 40.2626 94.0839 40.2832C94.1077 40.3039 94.1255 40.3305 94.1355 40.3604C94.1633 40.4197 94.1787 40.4842 94.1806 40.5498V43.6839C94.184 43.7184 94.184 43.7532 94.1806 43.7876C94.1728 43.8236 94.1607 43.8584 94.1445 43.8914C94.1294 43.9214 94.1096 43.9488 94.0859 43.9725C94.0762 43.9834 94.0644 43.9922 94.0512 43.9984C94.0381 44.0046 94.0238 44.0081 94.0092 44.0086H93.9822V44.0672H94.7938V44.0086H94.7667C94.7521 44.0083 94.7378 44.005 94.7246 43.9988C94.7114 43.9925 94.6996 43.9836 94.6901 43.9725C94.6676 43.9477 94.6479 43.9205 94.6315 43.8914C94.6143 43.8588 94.6021 43.8238 94.5954 43.7876C94.5919 43.7532 94.5919 43.7184 94.5954 43.6839V42.1822H94.8163C94.9693 42.1794 95.1211 42.1551 95.2672 42.1101C95.4184 42.0655 95.5615 41.997 95.6911 41.9072C95.8152 41.8219 95.9197 41.7112 95.9977 41.5825C96.1042 41.3963 96.1409 41.1784 96.1013 40.9676C96.0616 40.7569 95.9482 40.5672 95.7813 40.4325H95.7768ZM95.655 41.4878C95.6105 41.5793 95.5476 41.6607 95.4701 41.7268C95.3796 41.8027 95.2756 41.8608 95.1635 41.8981C95.0284 41.943 94.8866 41.9644 94.7442 41.9613H94.5683V40.3874H94.6495C94.8189 40.3835 94.9878 40.4063 95.15 40.4551C95.2712 40.4914 95.3833 40.5529 95.4792 40.6355C95.5599 40.7082 95.6218 40.7995 95.6595 40.9015C95.6968 41.0041 95.7151 41.1126 95.7136 41.2217C95.7134 41.3136 95.6934 41.4043 95.655 41.4878Z"
              fill="white"/>
        <path fill-rule="evenodd" clip-rule="evenodd"
              d="M100.61 43.4L99.2577 40.1847H98.667V40.2433H98.694C98.7083 40.2433 98.7224 40.246 98.7355 40.2515C98.7487 40.2569 98.7606 40.2648 98.7707 40.2749C98.795 40.2981 98.8149 40.3256 98.8293 40.356C98.8452 40.3876 98.8573 40.4209 98.8654 40.4553C98.8687 40.4867 98.8687 40.5185 98.8654 40.55V43.6841C98.869 43.7186 98.869 43.7534 98.8654 43.7878C98.8579 43.8238 98.8458 43.8587 98.8293 43.8916C98.8141 43.9215 98.7943 43.9489 98.7707 43.9727C98.761 43.9836 98.7492 43.9924 98.736 43.9986C98.7229 44.0048 98.7086 44.0083 98.694 44.0088H98.667V44.0674H99.2983V44.0088H99.2712C99.2559 44.0086 99.2409 44.0053 99.2269 43.9991C99.213 43.9929 99.2004 43.9839 99.19 43.9727C99.1671 43.9483 99.1474 43.921 99.1314 43.8916C99.1141 43.8591 99.1019 43.8241 99.0953 43.7878C99.0916 43.7534 99.0916 43.7186 99.0953 43.6841V40.7709L100.52 44.1306L102.004 40.586V43.6796C102.007 43.7141 102.007 43.7488 102.004 43.7833C101.997 43.8195 101.985 43.8545 101.968 43.887C101.95 43.9168 101.929 43.9441 101.904 43.9682C101.895 43.9793 101.883 43.9882 101.87 43.9944C101.857 44.0007 101.842 44.004 101.828 44.0043H101.801V44.0629H102.626V44.0043H102.599C102.584 44.0041 102.569 44.0008 102.555 43.9946C102.541 43.9884 102.528 43.9794 102.518 43.9682C102.493 43.9442 102.472 43.9168 102.455 43.887C102.437 43.8545 102.425 43.8195 102.419 43.7833C102.415 43.7489 102.415 43.7141 102.419 43.6796V40.5455C102.415 40.514 102.415 40.4822 102.419 40.4507C102.426 40.4161 102.438 40.3827 102.455 40.3515C102.471 40.3212 102.492 40.2938 102.518 40.2704C102.54 40.2498 102.569 40.2385 102.599 40.2388H102.626V40.1802H101.972L100.61 43.4Z"
              fill="white"/>
    </g>
    <defs>
        <linearGradient id="paint0_linear_3695_96" x1="18.3878" y1="7.94625" x2="29.4266" y2="14.3983"
                        gradientUnits="userSpaceOnUse">
            <stop stop-color="#2466AE"/>
            <stop offset="0.47" stop-color="#2466AE"/>
            <stop offset="0.96" stop-color="#1D408B"/>
            <stop offset="1" stop-color="#1D408B"/>
        </linearGradient>
        <linearGradient id="paint1_linear_3695_96" x1="25.2326" y1="25.2533" x2="27.6632" y2="26.6736"
                        gradientUnits="userSpaceOnUse">
            <stop stop-color="#1D448E"/>
            <stop offset="1" stop-color="#1D408B"/>
        </linearGradient>
        <linearGradient id="paint2_linear_3695_96" x1="280.494" y1="310.525" x2="318.425" y2="335.06"
                        gradientUnits="userSpaceOnUse">
            <stop stop-color="#1D448E"/>
            <stop offset="1" stop-color="#1D408B"/>
        </linearGradient>
        <linearGradient id="paint3_linear_3695_96" x1="-3.01656" y1="5.29424" x2="40.336" y2="30.6247"
                        gradientUnits="userSpaceOnUse">
            <stop stop-color="#173764"/>
            <stop offset="0.45" stop-color="#2466AE"/>
            <stop offset="0.47" stop-color="#2466AE"/>
            <stop offset="0.93" stop-color="#1A327D"/>
            <stop offset="1" stop-color="#1A327D"/>
        </linearGradient>
        <clipPath id="clip0_3695_96">
            <rect width="125" height="44.5906" fill="white"/>
        </clipPath>
    </defs>
</svg>