<svg width="16" height="16" viewBox="0 0 16 16" fill="none" xmlns="http://www.w3.org/2000/svg">
<path d="M8.9375 16H6.125C5.86591 16 5.65625 15.7903 5.65625 15.5312V9.375H4.25C3.99091 9.375 3.78125 9.16534 3.78125 8.90625V6.09375C3.78125 5.83466 3.99091 5.625 4.25 5.625H5.65625V3.28125C5.65625 1.47216 7.12841 0 8.9375 0H11.75C12.0091 0 12.2188 0.209656 12.2188 0.46875V3.28125C12.2188 3.54034 12.0091 3.75 11.75 3.75H9.40625V5.625H11.75C11.8878 5.625 12.0187 5.68544 12.1075 5.79072C12.1967 5.896 12.2352 6.03472 12.2123 6.17066L11.7436 8.98316C11.706 9.20928 11.5106 9.375 11.2812 9.375H9.40622V15.5312C9.40625 15.7903 9.19659 16 8.9375 16Z" fill="white"/>
</svg>
