<svg width="17" height="18" viewBox="0 0 17 18" fill="none" xmlns="http://www.w3.org/2000/svg">
<path d="M9.55127 18H6.58496C6.3117 18 6.09058 17.7641 6.09058 17.4727V10.5469H4.60742C4.33416 10.5469 4.11304 10.311 4.11304 10.0195V6.85547C4.11304 6.56399 4.33416 6.32812 4.60742 6.32812H6.09058V3.69141C6.09058 1.65618 7.64324 0 9.55127 0H12.5176C12.7908 0 13.012 0.235863 13.012 0.527344V3.69141C13.012 3.98289 12.7908 4.21875 12.5176 4.21875H10.0457V6.32812H12.5176C12.6629 6.32812 12.801 6.39612 12.8946 6.51456C12.9888 6.633 13.0293 6.78906 13.0052 6.94199L12.5108 10.1061C12.4712 10.3604 12.265 10.5469 12.0232 10.5469H10.0456V17.4727C10.0457 17.7641 9.82453 18 9.55127 18Z" fill="white"/>
</svg>
