<svg width="16" height="16" fill="none" xmlns="http://www.w3.org/2000/svg">
    <path d="M8 4.75a3.285 3.285 0 00-3.281 3.281A3.285 3.285 0 008 11.312a3.285 3.285 0 003.281-3.28A3.285 3.285 0 008 4.75zm0 0a3.285 3.285 0 00-3.281 3.281A3.285 3.285 0 008 11.312a3.285 3.285 0 003.281-3.28A3.285 3.285 0 008 4.75zM13.656 0H2.344A2.345 2.345 0 000 2.344v11.312A2.345 2.345 0 002.344 16h11.312A2.345 2.345 0 0016 13.656V2.344A2.345 2.345 0 0013.656 0zM8 12.25a4.225 4.225 0 01-4.219-4.219A4.225 4.225 0 018 3.812a4.225 4.225 0 014.219 4.22A4.225 4.225 0 018 12.25zm5.156-8.438a.94.94 0 01-.937-.937.94.94 0 01.937-.938.94.94 0 01.938.938.94.94 0 01-.938.938zM8 4.75a3.285 3.285 0 00-3.281 3.281A3.285 3.285 0 008 11.312a3.285 3.285 0 003.281-3.28A3.285 3.285 0 008 4.75zm0 0a3.285 3.285 0 00-3.281 3.281A3.285 3.285 0 008 11.312a3.285 3.285 0 003.281-3.28A3.285 3.285 0 008 4.75zm0 0a3.285 3.285 0 00-3.281 3.281A3.285 3.285 0 008 11.312a3.285 3.285 0 003.281-3.28A3.285 3.285 0 008 4.75z"
          fill="#f55f0c"/>
    <defs>
        <linearGradient id="MyGradient">
            <stop offset="5%" stop-color="#F60" />
            <stop offset="95%" stop-color="#FF6" />
        </linearGradient>
    </defs>
</svg>