<svg width="43" height="38" fill="none" xmlns="http://www.w3.org/2000/svg"><path d="M.01 27.394c0 5.569 4.514 10.083 10.082 10.083 5.57 0 10.084-4.514 10.084-10.083 0-5.57-4.514-10.083-10.083-10.083-1.145 0-2.24.2-3.266.55C9.096 4.849 19.244-3.544 9.837 3.363-.595 11.022-.002 27.086.01 27.38v.014zm22.182-.001c0 5.569 4.515 10.083 10.084 10.083s10.083-4.514 10.083-10.083c0-5.57-4.515-10.083-10.083-10.083-1.145 0-2.24.2-3.266.55C31.28 4.848 41.428-3.545 32.02 3.362c-10.432 7.66-9.839 23.724-9.827 24.018v.014z" fill="#fff"/></svg>