<svg width="100" height="88" fill="none" xmlns="http://www.w3.org/2000/svg"><path d="M99.978 24.607C99.978 11.46 89.321.803 76.174.803c-13.148 0-23.805 10.657-23.805 23.804 0 13.148 10.657 23.805 23.805 23.805 2.702 0 5.288-.471 7.71-1.301-5.358 30.724-29.316 50.537-7.107 34.23 24.627-18.082 23.228-56.006 23.2-56.701l.001-.033zm-52.37.003C47.608 11.462 36.951.805 23.804.805 10.655.805-.002 11.462-.002 24.61c0 13.147 10.657 23.804 23.805 23.804 2.702 0 5.288-.47 7.71-1.301-5.358 30.724-29.317 50.537-7.107 34.23 24.627-18.082 23.228-56.006 23.2-56.7l.001-.033z" fill="#fff"/></svg>